<svg width="34" height="34" viewBox="0 0 34 34" fill="none" xmlns="http://www.w3.org/2000/svg">
<path d="M24.25 18.3333C25.5 18.3333 26.6 17.65 27.1667 16.6167L33.1333 5.8C33.2738 5.54737 33.3459 5.26245 33.3424 4.97342C33.3389 4.6844 33.26 4.40129 33.1136 4.1521C32.9671 3.90292 32.7581 3.6963 32.5072 3.5527C32.2564 3.40909 31.9724 3.33348 31.6833 3.33333H7.01667L5.45 0H0V3.33333H3.33333L9.33333 15.9833L7.08333 20.05C5.86667 22.2833 7.46667 25 10 25H30V21.6667H10L11.8333 18.3333H24.25ZM8.6 6.66667H28.85L24.25 15H12.55L8.6 6.66667ZM10 26.6667C8.16667 26.6667 6.68333 28.1667 6.68333 30C6.68333 31.8333 8.16667 33.3333 10 33.3333C11.8333 33.3333 13.3333 31.8333 13.3333 30C13.3333 28.1667 11.8333 26.6667 10 26.6667ZM26.6667 26.6667C24.8333 26.6667 23.35 28.1667 23.35 30C23.35 31.8333 24.8333 33.3333 26.6667 33.3333C28.5 33.3333 30 31.8333 30 30C30 28.1667 28.5 26.6667 26.6667 26.6667Z" fill="#FBF2E8"/>
</svg>
