<svg width="53" height="53" viewBox="0 0 53 53" fill="none" xmlns="http://www.w3.org/2000/svg">
<circle cx="26.5" cy="26.5" r="26.5" fill="#AEDAEF"/>
<path d="M36.1714 10.4881C35.9474 10.2641 35.6641 10.1086 35.3549 10.0398C35.0456 9.97097 34.7231 9.99175 34.4253 10.0997C34.1274 10.2076 33.8664 10.3982 33.673 10.6491C33.4796 10.9 33.3617 11.2009 33.3331 11.5164L32.8231 17.1231L31.0198 15.3198C30.5555 14.8554 30.0042 14.487 29.3975 14.2357C28.7909 13.9844 28.1406 13.855 27.4839 13.855C26.8272 13.855 26.177 13.9844 25.5703 14.2357C24.9636 14.487 24.4124 14.8554 23.9481 15.3198L20.8148 18.4531L34.8398 32.4748L37.9731 29.3431C38.9105 28.4055 39.437 27.1339 39.437 25.8081C39.437 24.4823 38.9105 23.2107 37.9731 22.2731L36.1698 20.4714L41.7781 19.9614C42.0935 19.9326 42.3941 19.8145 42.6448 19.6209C42.8955 19.4274 43.0859 19.1664 43.1936 18.8686C43.3013 18.5708 43.322 18.2484 43.2531 17.9393C43.1843 17.6301 43.0287 17.347 42.8048 17.1231L36.1714 10.4881ZM10.4881 36.1714C10.2641 35.9474 10.1086 35.6641 10.0398 35.3549C9.97097 35.0456 9.99175 34.7231 10.0997 34.4253C10.2076 34.1274 10.3982 33.8664 10.6491 33.673C10.9 33.4796 11.2009 33.3617 11.5164 33.3331L17.1381 32.8214L20.4714 36.1548L19.9614 41.7781C19.9326 42.0935 19.8145 42.3941 19.6209 42.6448C19.4274 42.8955 19.1664 43.0859 18.8686 43.1936C18.5708 43.3013 18.2484 43.322 17.9393 43.2531C17.6301 43.1843 17.347 43.0287 17.1231 42.8048L10.4881 36.1714ZM32.4831 34.8331L29.3531 37.9631C28.8888 38.4275 28.3376 38.7959 27.7309 39.0472C27.1242 39.2985 26.4739 39.4279 25.8173 39.4279C25.1606 39.4279 24.5103 39.2985 23.9036 39.0472C23.297 38.7959 22.7457 38.4275 22.2814 37.9631L15.3281 31.0081C14.3907 30.0705 13.8642 28.7989 13.8642 27.4731C13.8642 26.1473 14.3907 24.8757 15.3281 23.9381L18.4614 20.8081L32.4831 34.8331Z" fill="#106294"/>
</svg>
