<svg width="29" height="29" viewBox="0 0 29 29" fill="none" xmlns="http://www.w3.org/2000/svg">
<path d="M13.2915 4.83328H4.83317C4.19223 4.83328 3.57754 5.08789 3.12433 5.54111C2.67112 5.99432 2.4165 6.60901 2.4165 7.24995V24.1666C2.4165 24.8076 2.67112 25.4222 3.12433 25.8755C3.57754 26.3287 4.19223 26.5833 4.83317 26.5833H21.7498C22.3908 26.5833 23.0055 26.3287 23.4587 25.8755C23.9119 25.4222 24.1665 24.8076 24.1665 24.1666V15.7083M22.354 3.02078C22.8347 2.54008 23.4867 2.27002 24.1665 2.27002C24.8463 2.27002 25.4983 2.54008 25.979 3.02078C26.4597 3.50149 26.7298 4.15346 26.7298 4.83328C26.7298 5.5131 26.4597 6.16508 25.979 6.64578L14.4998 18.1249L9.6665 19.3333L10.8748 14.4999L22.354 3.02078Z" stroke="white" stroke-width="4" stroke-linecap="round" stroke-linejoin="round"/>
</svg>
