<svg width="30" height="30" viewBox="0 0 30 30" fill="none" xmlns="http://www.w3.org/2000/svg">
<path d="M9.87984 7.86663H20.1065C20.9598 7.86663 21.6532 8.55996 21.6532 9.41329V11.12C21.6532 11.7466 21.2665 12.52 20.8798 12.9066L17.5465 15.8533C17.0798 16.24 16.7732 17.0133 16.7732 17.64V20.9733C16.7732 21.44 16.4665 22.0533 16.0798 22.2933L14.9998 22.9733C13.9865 23.6 12.5998 22.8933 12.5998 21.6533V17.5466C12.5998 17 12.2932 16.3066 11.9732 15.92L9.0265 12.8133C8.63984 12.44 8.33317 11.7333 8.33317 11.2666V9.49329C8.33317 8.55996 9.0265 7.86663 9.87984 7.86663Z" stroke="#DF9500" stroke-width="1.5" stroke-linecap="round" stroke-linejoin="round"/>
<path d="M10.9998 28.3333H18.9998C25.6665 28.3333 28.3332 25.6666 28.3332 19V11C28.3332 4.33329 25.6665 1.66663 18.9998 1.66663H10.9998C4.33317 1.66663 1.6665 4.33329 1.6665 11V19C1.6665 25.6666 4.33317 28.3333 10.9998 28.3333Z" stroke="#DF9500" stroke-width="1.5" stroke-linecap="round" stroke-linejoin="round"/>
</svg>
