<svg width="96" height="80" viewBox="0 0 96 80" fill="none" xmlns="http://www.w3.org/2000/svg">
<path d="M93.8332 69.1667C93.8332 71.3768 92.9552 73.4964 91.3924 75.0592C89.8296 76.622 87.71 77.5 85.4998 77.5H10.4998C8.2897 77.5 6.17008 76.622 4.60728 75.0592C3.04448 73.4964 2.1665 71.3768 2.1665 69.1667V23.3333C2.1665 21.1232 3.04448 19.0036 4.60728 17.4408C6.17008 15.878 8.2897 15 10.4998 15H27.1665L35.4998 2.5H60.4998L68.8332 15H85.4998C87.71 15 89.8296 15.878 91.3924 17.4408C92.9552 19.0036 93.8332 21.1232 93.8332 23.3333V69.1667Z" stroke="white" stroke-width="4" stroke-linecap="round" stroke-linejoin="round"/>
<path d="M47.9998 60.8333C57.2046 60.8333 64.6665 53.3714 64.6665 44.1667C64.6665 34.9619 57.2046 27.5 47.9998 27.5C38.7951 27.5 31.3332 34.9619 31.3332 44.1667C31.3332 53.3714 38.7951 60.8333 47.9998 60.8333Z" stroke="white" stroke-width="4" stroke-linecap="round" stroke-linejoin="round"/>
</svg>
