<svg width="48" height="48" viewBox="0 0 48 48" fill="none" xmlns="http://www.w3.org/2000/svg">
<rect width="48" height="48" rx="24" fill="white"/>
<path d="M34.0998 38.7822C32.1398 40.6822 29.9998 40.3822 27.9398 39.4822C25.7598 38.5622 23.7598 38.5222 21.4598 39.4822C18.5798 40.7222 17.0598 40.3622 15.3398 38.7822C5.57984 28.7222 7.01984 13.4022 18.0998 12.8422C20.7998 12.9822 22.6798 14.3222 24.2598 14.4422C26.6198 13.9622 28.8798 12.5822 31.3998 12.7622C34.4198 13.0022 36.6998 14.2022 38.1998 16.3622C31.9598 20.1022 33.4398 28.3222 39.1598 30.6222C38.0198 33.6222 36.5398 36.6022 34.0798 38.8022L34.0998 38.7822ZM24.0598 12.7222C23.7598 8.26223 27.3798 4.58223 31.5398 4.22223C32.1198 9.38223 26.8598 13.2222 24.0598 12.7222Z" fill="#106294"/>
</svg>
