<svg width="23" height="30" viewBox="0 0 23 30" fill="none" xmlns="http://www.w3.org/2000/svg">
<path d="M11.5 22.8571C12.2625 22.8571 12.9938 22.5561 13.5329 22.0203C14.0721 21.4845 14.375 20.7578 14.375 20C14.375 19.2422 14.0721 18.5155 13.5329 17.9797C12.9938 17.4439 12.2625 17.1429 11.5 17.1429C10.7375 17.1429 10.0062 17.4439 9.46707 17.9797C8.9279 18.5155 8.625 19.2422 8.625 20C8.625 20.7578 8.9279 21.4845 9.46707 22.0203C10.0062 22.5561 10.7375 22.8571 11.5 22.8571ZM20.125 10C20.8875 10 21.6188 10.301 22.1579 10.8368C22.6971 11.3727 23 12.0994 23 12.8571V27.1429C23 27.9006 22.6971 28.6273 22.1579 29.1632C21.6188 29.699 20.8875 30 20.125 30H2.875C2.1125 30 1.38123 29.699 0.842068 29.1632C0.302901 28.6273 0 27.9006 0 27.1429V12.8571C0 12.0994 0.302901 11.3727 0.842068 10.8368C1.38123 10.301 2.1125 10 2.875 10H4.3125V7.14286C4.3125 5.24845 5.06975 3.43164 6.41767 2.09209C7.76559 0.752549 9.59376 0 11.5 0C12.4439 0 13.3785 0.184756 14.2505 0.543718C15.1226 0.90268 15.9149 1.42882 16.5823 2.09209C17.2498 2.75537 17.7792 3.54279 18.1404 4.4094C18.5016 5.27602 18.6875 6.20484 18.6875 7.14286V10H20.125ZM11.5 2.85714C10.3563 2.85714 9.25935 3.30867 8.4506 4.1124C7.64185 4.91613 7.1875 6.00622 7.1875 7.14286V10H15.8125V7.14286C15.8125 6.00622 15.3581 4.91613 14.5494 4.1124C13.7406 3.30867 12.6437 2.85714 11.5 2.85714Z" fill="#D28F32"/>
</svg>
