<svg width="20" height="24" viewBox="0 0 20 24" fill="none" xmlns="http://www.w3.org/2000/svg">
<path d="M7.77778 21.7143H12.2222C12.2222 22.9714 11.2222 24 10 24C8.77778 24 7.77778 22.9714 7.77778 21.7143ZM20 19.4286V20.5714H0V19.4286L2.22222 17.1429V10.2857C2.22222 6.74286 4.44444 3.65714 7.77778 2.62857V2.28571C7.77778 1.02857 8.77778 0 10 0C11.2222 0 12.2222 1.02857 12.2222 2.28571V2.62857C15.5556 3.65714 17.7778 6.74286 17.7778 10.2857V17.1429L20 19.4286ZM15.5556 10.2857C15.5556 7.08571 13.1111 4.57143 10 4.57143C6.88889 4.57143 4.44444 7.08571 4.44444 10.2857V18.2857H15.5556V10.2857Z" fill="white"/>
</svg>
