<svg width="53" height="53" viewBox="0 0 53 53" fill="none" xmlns="http://www.w3.org/2000/svg">
<circle cx="26.5" cy="26.5" r="26.5" fill="#AEDAEF"/>
<path d="M7 21.5C7 18.7422 9.24219 16.5 12 16.5H12.125C12.7031 13.6484 15.2266 11.5 18.25 11.5C19.4219 11.5 20.5156 11.8203 21.4453 12.375C22.4844 10.375 24.5859 9 27 9C29.4141 9 31.5156 10.375 32.5547 12.375C33.4844 11.8203 34.5781 11.5 35.75 11.5C38.7734 11.5 41.2969 13.6484 41.875 16.5H42C44.7578 16.5 47 18.7422 47 21.5C47 22.4141 46.7578 23.2656 46.3281 24H7.67188C7.24219 23.2656 7 22.4141 7 21.5ZM7 28.6406C7 27.4609 7.96094 26.5 9.14062 26.5H44.8516C46.0312 26.5 46.9922 27.4609 46.9922 28.6406C46.9922 34.1484 43.5234 38.8516 38.6562 40.6797L38.5234 41.8125C38.3672 43.0625 37.3047 44 36.0391 44H17.9531C16.6953 44 15.625 43.0625 15.4688 41.8125L15.3281 40.6875C10.4687 38.8516 7 34.1484 7 28.6406Z" fill="#106294"/>
</svg>
