<svg width="25" height="33" viewBox="0 0 25 33" fill="none" xmlns="http://www.w3.org/2000/svg">
<path d="M5.25262 32.8421V17.8168C3.86876 17.4337 2.70903 16.6674 1.77343 15.5179C0.837835 14.3684 0.369494 13.0274 0.368408 11.4947V0H3.62455V11.4947H5.25262V0H8.50876V11.4947H10.1368V0H13.393V11.4947C13.393 13.0274 12.9252 14.3684 11.9896 15.5179C11.054 16.6674 9.8937 17.4337 8.50876 17.8168V32.8421H5.25262ZM21.5333 32.8421V19.7053H16.6491V8.21053C16.6491 5.93895 17.4431 4.00291 19.031 2.4024C20.6189 0.801895 22.5384 0.00109474 24.7895 0V32.8421H21.5333Z" fill="#B50A0A" style="mix-blend-mode:multiply"/>
</svg>
