<svg width="53" height="53" viewBox="0 0 53 53" fill="none" xmlns="http://www.w3.org/2000/svg">
<circle cx="26.5" cy="26.5" r="26.5" fill="#AEDAEF"/>
<path d="M19.205 11.3333H13.6667V8H21.4617L24.795 16.3333H42V19.6667H38.47L37.0917 43.0983C37.0666 43.5225 36.8804 43.9211 36.5713 44.2126C36.2621 44.5041 35.8533 44.6666 35.4283 44.6667H18.5717C18.1467 44.6666 17.7379 44.5041 17.4287 44.2126C17.1196 43.9211 16.9334 43.5225 16.9083 43.0983L15.53 19.6667H12V16.3333H21.205L19.205 11.3333ZM18.8683 19.6667L19.165 24.7083C23.6183 24.8917 25.78 25.7167 27.6 26.445C29.3517 27.145 30.8 27.755 34.645 27.945L35.1317 19.6667H18.8683Z" fill="#106294"/>
</svg>
